<svg xmlns="http://www.w3.org/2000/svg" viewBox="0 0 400 200" width="400" height="200">
  <defs><marker id="arrowR" markerWidth="8" markerHeight="6" refX="8" refY="3" orient="auto"><path d="M0,0 L8,3 L0,6" fill="#3b82f6"/></marker></defs>
  <rect width="400" height="200" fill="#f8fafc" rx="4"/>
  <!-- Objective housing -->
  <rect x="155" y="35" width="90" height="80" rx="5" fill="none" stroke="#3b82f6" stroke-width="1.5"/>
  <rect x="170" y="115" width="60" height="40" rx="2" fill="none" stroke="#3b82f6" stroke-width="1.5"/>
  <!-- Lens elements inside -->
  <path d="M180,60 Q185,75 180,90" fill="none" stroke="#3b82f6" stroke-width="1"/>
  <path d="M200,55 Q207,75 200,95" fill="none" stroke="#3b82f6" stroke-width="1"/>
  <path d="M220,60 Q215,75 220,90" fill="none" stroke="#3b82f6" stroke-width="1"/>
  <!-- Light path -->
  <line x1="200" y1="160" x2="200" y2="118" stroke="#ef4444" stroke-width="1" marker-end="url(#arrowR)"/>
  <line x1="190" y1="160" x2="195" y2="118" stroke="#3b82f6" stroke-width="0.8"/>
  <line x1="210" y1="160" x2="205" y2="118" stroke="#3b82f6" stroke-width="0.8"/>
  <line x1="195" y1="50" x2="40" y2="70" stroke="#3b82f6" stroke-width="1" marker-end="url(#arrowR)"/>
  <line x1="200" y1="40" x2="40" y2="100" stroke="#3b82f6" stroke-width="1" marker-end="url(#arrowR)"/>
  <line x1="205" y1="50" x2="40" y2="130" stroke="#3b82f6" stroke-width="1" marker-end="url(#arrowR)"/>
  <text x="200" y="180" text-anchor="middle" font-size="11" fill="#64748b">Microscope Objective</text>
  <text x="200" y="175" text-anchor="middle" font-size="9" fill="#94a3b8" dy="10">Sample → Collimated Output</text>
</svg>